#!OML:ASF X:\für Bonn\!DataBase\2005_08_11_Bastian_Final\c3d\Bastian.ASF
:FULLY-SPECIFIED
:DEGREES
129
root -14.4019 14.7057 15.9785 390.094 -224.105 23.2765
lowerback 37.0508 5.50416 -20.5291
upperback 9.65566 1.61273 -10.2382
thorax -6.65101 2.09949 -1.50223
lowerneck -12.4184 1.35633 1.25416
upperneck 1.17288 1.58868 4.53189
head 2.51371 1.04806 1.35016
rclavicle -2.22639e-013 -1.74931e-014
rhumerus 73.1821 -29.9572 -30.1724
rradius 28.7664
rwrist 2.62543
rhand -20.4158 0.207477
rfingers 7.12502
rthumb 5.93838 -29.6893
lclavicle -2.22639e-013 -1.74931e-014
lhumerus 43.1457 5.84713 18.9652
lradius 30.9971
lwrist 49.6279
lhand -24.2836 -9.51106
lfingers 7.12502
lthumb 2.20345 20.4573
rfemur 24.9539 -15.7814 30.4057
rtibia 28.6827
rfoot 16.5439 17.6466
rtoes -46.0848
lfemur -70.4497 5.77177 -13.9497
ltibia 72.7705
lfoot -13.9065 -8.51593
ltoes 0.0731922
130
root -14.1669 14.7195 15.8281 390.788 -222.723 22.7734
lowerback 37.9147 5.63219 -20.9793
upperback 9.67604 1.47579 -10.3429
thorax -6.84994 2.09096 -1.43118
lowerneck -13.3733 1.10218 1.27686
upperneck 0.96321 1.24325 4.97772
head 2.62669 0.917961 1.48505
rclavicle 8.26944e-014 3.65764e-014
rhumerus 73.4409 -29.987 -30.299
rradius 28.133
rwrist 2.05215
rhand -20.1565 -0.108416
rfingers 7.12502
rthumb 6.1887 -29.998
lclavicle 8.26944e-014 3.65764e-014
lhumerus 44.865 5.89054 18.8364
lradius 29.9645
lwrist 49.2014
lhand -23.7517 -8.37164
lfingers 7.12502
lthumb 2.71712 21.5908
rfemur 24.3353 -17.6508 30.2868
rtibia 29.0035
rfoot 16.5669 16.4581
rtoes -45.7025
lfemur -71.2197 4.96177 -13.6266
ltibia 73.4706
lfoot -13.7688 -8.95455
ltoes 1.30583
131
root -13.9471 14.7403 15.6713 391.87 -221.604 22.5783
lowerback 38.6531 5.79317 -21.3176
upperback 9.61359 1.39767 -10.5133
thorax -7.11145 2.10762 -1.50129
lowerneck -14.2984 0.832802 1.38818
upperneck 0.724919 0.871376 5.306
head 2.7265 0.772362 1.56159
rclavicle 8.5875e-014 6.04305e-014
rhumerus 73.5086 -29.9914 -30.0232
rradius 27.6113
rwrist 1.08482
rhand -19.9854 -0.836624
rfingers 7.12502
rthumb 6.35391 -30.7213
lclavicle 8.5875e-014 6.04305e-014
lhumerus 46.4988 6.01754 18.7708
lradius 29.1487
lwrist 49.125
lhand -23.1842 -7.36601
lfingers 7.12502
lthumb 3.26525 22.5887
rfemur 23.789 -19.6664 29.8929
rtibia 29.2117
rfoot 16.2236 15.2109
rtoes -46.0569
lfemur -72.0399 4.39793 -13.1668
ltibia 73.9769
lfoot -13.6593 -9.29154
ltoes 2.28684
132
root -13.7407 14.7661 15.507 393.303 -220.747 22.6879
lowerback 39.2328 6.00363 -21.6074
upperback 9.48883 1.39099 -10.7079
thorax -7.4029 2.1492 -1.64148
lowerneck -15.242 0.568418 1.50045
upperneck 0.483171 0.509106 5.54995
head 2.82875 0.630275 1.60906
rclavicle 1.74931e-013 8.18993e-014
rhumerus 73.4744 -29.9727 -29.4207
rradius 27.172
rwrist -0.112855
rhand -19.998 -1.8482
rfingers 7.12502
rthumb 6.34173 -31.7333
lclavicle 1.74931e-013 8.18993e-014
lhumerus 47.9477 6.15409 18.6297
lradius 28.6001
lwrist 49.5199
lhand -22.7229 -6.48153
lfingers 7.12502
lthumb 3.71072 23.4659
rfemur 23.1342 -21.848 29.2052
rtibia 29.8186
rfoot 15.6425 14.3049
rtoes -46.6141
lfemur -72.9063 4.07546 -12.5606
ltibia 74.4244
lfoot -13.7121 -9.50217
ltoes 3.23121
133
root -13.519 14.8726 15.3165 394.92 -220.033 22.9841
lowerback 39.7186 6.20998 -21.8097
upperback 9.32579 1.40385 -10.9446
thorax -7.71794 2.1956 -1.87123
lowerneck -16.0753 0.311517 1.58013
upperneck 0.179737 0.170815 5.81191
head 2.88869 0.500253 1.66608
rclavicle -1.11319e-013 8.5875e-014
rhumerus 73.3582 -29.9026 -28.6815
rradius 26.7901
rwrist -1.447
rhand -20.0538 -2.96919
rfingers 7.12502
rthumb 6.28791 -32.8559
lclavicle -1.11319e-013 8.5875e-014
lhumerus 49.7044 6.8216 19.4458
lradius 27.547
lwrist 49.2105
lhand -22.0161 -5.93871
lfingers 7.12502
lthumb 4.39318 23.9957
rfemur 22.3685 -24.1472 28.3819
rtibia 30.7161
rfoot 15.0484 13.4939
rtoes -47.2406
lfemur -73.1918 3.9957 -11.8247
ltibia 74.5207
lfoot -14.1087 -9.81027
ltoes 4.65768
134
root -13.3283 14.9005 15.138 396.665 -219.453 23.464
lowerback 40.1331 6.41754 -21.9418
upperback 9.14193 1.43991 -11.2107
thorax -8.0436 2.24752 -2.17139
lowerneck -16.8382 0.0726331 1.61684
upperneck -0.174094 -0.126983 6.0836
head 2.91719 0.390809 1.73447
rclavicle 1.74931e-013 1.57437e-013
rhumerus 73.0071 -29.7475 -27.5519
rradius 26.5501
rwrist -3.1449
rhand -20.2843 -4.1574
rfingers 7.12502
rthumb 6.06533 -34.0506
lclavicle 1.74931e-013 1.57437e-013
lhumerus 51.3648 7.54156 20.3806
lradius 26.6242
lwrist 49.032
lhand -21.3672 -5.44359
lfingers 7.12502
lthumb 5.01978 24.477
rfemur 21.6951 -26.4309 27.3236
rtibia 32.1436
rfoot 14.4388 12.9701
rtoes -47.4038
lfemur -73.9865 3.98683 -11.0366
ltibia 74.8848
lfoot -14.366 -9.93063
ltoes 6.57447
